<svg width="98" height="21" viewBox="0 0 98 21" fill="none" xmlns="http://www.w3.org/2000/svg">
<path fill-rule="evenodd" clip-rule="evenodd" d="M11.6377 0.724153C11.2659 0.877142 10.7975 1.1191 10.5969 1.26197C9.62254 1.95579 8.8911 3.23046 8.84505 4.31489L8.81756 4.96133L9.34067 4.92781C10.9865 4.82232 12.5982 3.04202 12.7155 1.19988C12.7725 0.304365 12.7174 0.280012 11.6377 0.724153ZM11.289 5.37364C10.858 5.49336 10.1687 5.72013 9.75696 5.87758L9.00865 6.16391L7.62426 5.69662C6.39782 5.28262 6.14488 5.23608 5.40754 5.28889C4.33625 5.36544 3.40529 5.78921 2.56801 6.58104C1.77919 7.32706 1.35072 8.09213 1.03884 9.31171C0.734545 10.5014 0.736956 11.6045 1.04679 13.1252C1.50142 15.3557 2.54197 17.4379 3.95938 18.9531C5.11965 20.1935 5.88447 20.344 7.55169 19.6598C8.69652 19.19 9.5901 19.204 11.0408 19.7144C11.9127 20.0212 12.2891 20.0974 12.6493 20.0398C13.7101 19.8702 14.3656 19.3139 15.5188 17.6047C16.1097 16.7291 16.8238 15.2826 16.8315 14.9457C16.8333 14.8673 16.7249 14.7683 16.5907 14.7257C16.4566 14.6831 16.0307 14.3557 15.6445 13.9981C14.6811 13.1062 14.2709 12.1927 14.2708 10.9384C14.2706 9.60877 14.6167 8.78595 15.583 7.81894L16.3415 7.05966L15.9121 6.5843C15.4049 6.02285 14.262 5.4332 13.3523 5.26333C12.488 5.10202 12.2144 5.11673 11.289 5.37364ZM50.8325 10.929V16.1131H51.7367H52.6409V10.929V5.74496H51.7367H50.8325V10.929ZM67.2034 6.27567C65.6393 6.69666 64.7238 8.08743 65.0675 9.52016C65.2928 10.4591 66.0177 11.1107 67.5607 11.7611C69.2417 12.4696 69.6897 13.0515 69.2678 13.9777C68.9167 14.7482 67.2811 14.9753 65.9096 14.4439C65.5488 14.3042 65.2424 14.2021 65.2287 14.2171C65.1384 14.3158 64.8327 15.558 64.8798 15.6344C65.0083 15.8423 66.1371 16.1356 67.0477 16.1977C69.4798 16.3637 71.0697 15.3344 71.1853 13.5189C71.2118 13.1022 71.1711 12.572 71.0947 12.3408C70.8209 11.511 69.8918 10.8083 68.2616 10.1984C67.3135 9.84374 66.8668 9.38995 66.8668 8.78161C66.8668 7.87573 67.841 7.40916 69.2055 7.66149C69.5774 7.73021 69.9946 7.84691 70.1327 7.92082C70.2707 7.99472 70.3994 8.03716 70.4185 8.01522C70.5358 7.88067 70.8206 6.63662 70.7502 6.56621C70.5664 6.38296 69.1909 6.107 68.4992 6.11472C68.0987 6.1193 67.5157 6.19164 67.2034 6.27567ZM26.8568 6.6148C26.7874 6.83265 26.1112 8.93677 25.3543 11.2907C24.5974 13.6446 23.9398 15.695 23.8929 15.8471C23.8084 16.1209 23.8166 16.1232 24.7456 16.0882L25.6836 16.0528L26.1012 14.6965L26.5188 13.3402H28.1039H29.689L30.0945 14.6782C30.3175 15.4141 30.5633 16.0405 30.641 16.0703C30.7185 16.1 31.1621 16.1082 31.6268 16.0886L32.4715 16.0528L30.8821 11.1701L29.2926 6.28748L28.1379 6.25312L26.9832 6.21876L26.8568 6.6148ZM73.7689 7.45594L73.0154 7.69489V8.34748V9.00006H72.5331H72.0509V9.66314V10.3262H72.5236H72.9962L73.036 12.5264C73.0705 14.4386 73.1072 14.7887 73.3168 15.201C73.7186 15.9918 74.0793 16.1733 75.2485 16.1733C75.8039 16.1733 76.3057 16.1191 76.3635 16.0528C76.4213 15.9865 76.4469 15.66 76.4201 15.3271L76.3715 14.7222L75.9055 14.7665C75.5316 14.8022 75.3789 14.7503 75.1317 14.503C74.827 14.1983 74.8238 14.1742 74.8238 12.2606V10.3262H75.6677H76.5116V9.66314V9.00006H75.6677H74.8238V8.09587C74.8238 7.07232 74.8772 7.10463 73.7689 7.45594ZM28.2319 8.30685C28.278 8.52229 28.5263 9.36584 28.784 10.1813C29.0416 10.9969 29.2524 11.7157 29.2524 11.7787C29.2524 11.8438 28.7245 11.8935 28.0339 11.8935C27.0233 11.8935 26.8267 11.8638 26.8819 11.72C27.1179 11.1054 27.8247 8.74158 27.8846 8.36713C27.9737 7.81099 28.1205 7.78555 28.2319 8.30685ZM36.4256 9.12569C36.1604 9.25577 35.8239 9.49773 35.6779 9.66338C35.5319 9.82903 35.3827 9.96454 35.3464 9.96454C35.3101 9.96454 35.2803 9.74753 35.2803 9.4823V9.00006H34.4235C33.6917 9.00006 33.5774 9.02791 33.6399 9.19079C33.6801 9.29568 33.713 11.5471 33.713 14.194V19.0065H34.6172H35.5214V17.1874V15.3682L35.8801 15.67C36.3936 16.1021 37.0156 16.2738 37.8082 16.2019C39.4718 16.051 40.5244 14.8823 40.7742 12.9086C40.8625 12.2106 40.6622 11.0737 40.3404 10.4468C40.0536 9.8881 39.4249 9.2976 38.8708 9.06649C38.2378 8.80235 37.0248 8.83176 36.4256 9.12569ZM44.8943 9.1891C44.5791 9.3533 44.254 9.5949 44.172 9.72607C43.9447 10.0902 43.84 10.0134 43.84 9.4823V9.00006H43.0263L42.2125 8.99994L42.2453 14.0033L42.2779 19.0065H43.1796H44.0811V17.1874V15.3682L44.4398 15.67C44.9533 16.1021 45.5754 16.2738 46.3679 16.2019C47.6469 16.0859 48.6794 15.262 49.1068 14.0164C49.4207 13.1014 49.3886 11.5278 49.0401 10.7482C48.7211 10.0347 48.171 9.42913 47.552 9.11001C46.8813 8.76437 45.6394 8.80126 44.8943 9.1891ZM56.3782 9.03647C56.1461 9.10929 55.6492 9.47434 55.2737 9.84772C54.4689 10.6482 54.2081 11.3408 54.2081 12.6775C54.2081 14.3393 54.923 15.4708 56.2923 15.9761C57.2956 16.3463 59.3149 16.2873 60.126 15.8637C60.4025 15.7196 60.1631 14.5012 59.8801 14.6114C59.3983 14.7987 58.3177 14.9216 57.7617 14.852C57.0118 14.7583 56.4555 14.4372 56.1365 13.9139C55.641 13.1014 55.6246 13.1079 58.277 13.0715L60.658 13.0388L60.641 12.0743C60.6219 10.9848 60.4334 10.4388 59.8456 9.76923C59.2848 9.13063 58.6612 8.88276 57.6441 8.89445C57.1799 8.89976 56.6103 8.96365 56.3782 9.03647ZM79.572 9.06758C78.8678 9.32714 78.1215 10.0097 77.7529 10.7315C77.3342 11.5515 77.24 12.8811 77.53 13.8786C77.8065 14.8301 78.7258 15.7683 79.6502 16.0428C81.5748 16.6143 83.497 15.8241 84.2356 14.1575C84.6322 13.2626 84.6376 11.7307 84.247 10.8687C83.9185 10.1437 83.3732 9.55066 82.7204 9.20827C82.0867 8.87601 80.3078 8.79656 79.572 9.06758ZM88.5973 9.13473C88.3816 9.27289 88.0702 9.61106 87.9052 9.88617L87.6053 10.3865L87.6041 9.69328L87.603 9.00006H86.8194H86.0358V12.5566V16.1131H86.94H87.8442V14.1389C87.8442 13.0531 87.8794 11.989 87.9223 11.7741C87.9652 11.5594 88.184 11.1999 88.4085 10.9754C88.7628 10.6212 88.8957 10.5673 89.4154 10.5673H90.0142V9.72342V8.8795L89.5018 8.88155C89.1915 8.88276 88.8348 8.98258 88.5973 9.13473ZM92.8236 9.07782C91.371 9.59237 90.4192 11.5723 90.7482 13.3954C90.9654 14.5994 91.4723 15.3207 92.4712 15.8477C93.0347 16.145 93.204 16.1731 94.4146 16.1709C95.1463 16.1696 95.9773 16.0981 96.2684 16.0116L96.7959 15.8545L96.7214 15.3107C96.6224 14.5889 96.5741 14.532 96.1887 14.6841C96.0087 14.755 95.4002 14.8208 94.8366 14.8302C93.9996 14.8441 93.7347 14.8019 93.3902 14.5996C92.9239 14.3255 92.4254 13.667 92.4254 13.3249C92.4254 13.1196 92.5909 13.1019 94.8065 13.0715L97.1875 13.0388L97.1744 12.1301C97.1534 10.6766 96.5548 9.59659 95.4997 9.10809C94.9064 8.83333 93.5567 8.81814 92.8236 9.07782ZM58.3657 10.3465C58.5485 10.4902 58.7729 10.7869 58.8642 11.0057C59.1866 11.777 59.1942 11.7729 57.4632 11.7729C56.4662 11.7729 55.896 11.7276 55.896 11.6485C55.896 11.3361 56.2598 10.7075 56.6122 10.411C57.1117 9.9907 57.8777 9.96249 58.3657 10.3465ZM94.9444 10.3942C95.2488 10.6504 95.5565 11.2949 95.5592 11.6825C95.5596 11.7322 94.8547 11.7729 93.9927 11.7729C92.9957 11.7729 92.4254 11.7276 92.4254 11.6485C92.4254 11.3361 92.7893 10.7075 93.1417 10.411C93.6707 9.96574 94.4268 9.95875 94.9444 10.3942ZM37.8954 10.4404C38.5707 10.747 38.9258 11.4278 38.9333 12.4312C38.9401 13.3389 38.7488 13.9295 38.3126 14.3475C37.4259 15.1969 36.0771 14.9117 35.6501 13.7845C35.5793 13.5978 35.5226 13.0553 35.5241 12.5789C35.5277 11.388 35.8185 10.7601 36.512 10.4453C37.1518 10.155 37.2659 10.1545 37.8954 10.4404ZM46.6418 10.5265C47.4714 10.9443 47.7852 12.7062 47.2333 13.8464C46.5893 15.1768 44.7999 15.1887 44.2474 13.8663C44.0326 13.3523 44.0333 11.8796 44.2487 11.3642C44.6716 10.3519 45.6296 10.0166 46.6418 10.5265ZM81.9188 10.5104C82.4512 10.9584 82.6983 11.7112 82.6382 12.701C82.55 14.1484 81.9482 14.906 80.8861 14.907C80.1867 14.9076 79.5946 14.3851 79.3461 13.548C79.1278 12.8132 79.1221 12.5831 79.3007 11.7487C79.4018 11.2772 79.556 10.9915 79.8893 10.6578C80.292 10.2548 80.4072 10.2057 80.9489 10.2057C81.4231 10.2057 81.6362 10.2727 81.9188 10.5104Z" fill="black"/>
</svg>
