<svg width="136" height="91" viewBox="0 0 136 91" fill="none" xmlns="http://www.w3.org/2000/svg">
<path fill-rule="evenodd" clip-rule="evenodd" d="M16.1945 33.4785C15.9214 33.772 15.7644 34.2238 15.7644 34.8108V55.6913C15.7644 56.2783 15.9214 56.7301 16.2047 57.0134L16.2787 57.0759L27.9785 45.3761V45.1132L16.2685 33.416L16.1945 33.4785Z" fill="url(#paint0_linear_23_45)"/>
<path fill-rule="evenodd" clip-rule="evenodd" d="M31.8708 49.2914L27.9683 45.3876V45.1145L31.872 41.2107L31.9563 41.263L36.5734 43.8868C37.8955 44.6321 37.8955 45.8598 36.5734 46.6153L31.9563 49.239C31.955 49.239 31.8708 49.2914 31.8708 49.2914Z" fill="url(#paint1_linear_23_45)"/>
<path fill-rule="evenodd" clip-rule="evenodd" d="M31.955 49.2391L27.9683 45.2511L16.1945 57.0249C16.6245 57.4869 17.3481 57.5392 18.1572 57.0874L31.955 49.2391Z" fill="url(#paint2_linear_23_45)"/>
<path fill-rule="evenodd" clip-rule="evenodd" d="M31.955 41.2643L18.1572 33.4262C17.3494 32.9642 16.6245 33.0267 16.1945 33.4887L27.967 45.2511L31.955 41.2643Z" fill="url(#paint3_linear_23_45)"/>
<path opacity="0.2" fill-rule="evenodd" clip-rule="evenodd" d="M31.8708 49.1548L18.1674 56.9407C17.4017 57.3809 16.719 57.3503 16.2787 56.9509L16.2047 57.0249L16.2787 57.0874C16.719 57.4856 17.4017 57.5175 18.1674 57.0772L31.9653 49.239L31.8708 49.1548Z" fill="black"/>
<path opacity="0.12" fill-rule="evenodd" clip-rule="evenodd" d="M36.5722 46.4787L31.8606 49.1548L31.9448 49.2391L36.562 46.6153C37.223 46.2375 37.5484 45.7449 37.5484 45.2511C37.5063 45.7028 37.1707 46.1329 36.5722 46.4787Z" fill="black"/>
<path opacity="0.25" fill-rule="evenodd" clip-rule="evenodd" d="M18.1572 33.5627L36.5722 44.0247C37.1707 44.3603 37.5063 44.8006 37.5586 45.2523C37.5586 44.7597 37.2332 44.2659 36.5722 43.8881L18.1572 33.4262C16.8351 32.6707 15.7644 33.2998 15.7644 34.8108V34.9473C15.7644 33.4364 16.8351 32.8174 18.1572 33.5627Z" fill="white"/>
<path fill-rule="evenodd" clip-rule="evenodd" d="M42.0533 44.5887C42.0533 41.2439 44.8647 38.5206 48.2095 38.5206C50.0587 38.5206 51.3744 39.2467 52.3672 40.1924L51.1983 41.3613C50.4887 40.6952 49.5265 40.1783 48.2082 40.1783C45.7657 40.1783 43.8565 42.1449 43.8565 44.5875C43.8565 47.03 45.7657 48.9991 48.207 48.9991C49.7907 48.9991 50.6917 48.3636 51.2698 47.7842C51.7432 47.3108 52.0533 46.6306 52.1733 45.6977H48.2095V44.0438H53.7889C53.8476 44.3399 53.8782 44.6947 53.8782 45.0788C53.8782 46.3205 53.5375 47.8608 52.4413 48.957C51.3744 50.0673 50.014 50.6594 48.2082 50.6594C44.8622 50.6594 42.0508 47.9387 42.0508 44.5913L42.0533 44.5887ZM58.3882 42.8429C56.2276 42.8429 54.464 44.4866 54.464 46.7493C54.464 49.0004 56.2264 50.6556 58.3882 50.6556C60.55 50.6556 62.3098 48.9979 62.3098 46.748C62.3098 44.4854 60.5487 42.8417 58.3882 42.8429ZM58.3882 49.1191C57.2052 49.1191 56.183 48.1428 56.183 46.7505C56.183 45.3442 57.2039 44.382 58.3882 44.382C59.5712 44.382 60.5921 45.3429 60.5921 46.7505C60.5921 48.1416 59.5724 49.1191 58.3882 49.1191ZM66.9448 42.8429C64.7843 42.8429 63.0232 44.4866 63.0232 46.7493C63.0232 49.0004 64.7843 50.6556 66.9448 50.6556C69.1054 50.6556 70.8664 48.9979 70.8664 46.748C70.8664 44.4854 69.1066 42.8417 66.9448 42.8429ZM66.9448 49.1191C65.7618 49.1191 64.7396 48.1428 64.7396 46.7505C64.7396 45.3442 65.7605 44.382 66.9448 44.382C68.1278 44.382 69.15 45.3429 69.15 46.7505C69.15 48.1416 68.1278 49.1191 66.9448 49.1191ZM77.4463 43.0803V43.7158H77.3876C77.0035 43.2551 76.2633 42.8417 75.3317 42.8417C73.3779 42.8417 71.5849 44.5594 71.5849 46.7659C71.5849 48.9545 73.3767 50.6581 75.3317 50.6581C76.2633 50.6581 77.0035 50.2447 77.3876 49.7712H77.4463V50.3327C77.4463 51.8271 76.6474 52.6273 75.3598 52.6273C74.3083 52.6273 73.6574 51.8718 73.3907 51.2375L71.895 51.859C72.3238 52.894 73.4647 54.1676 75.3585 54.1676C77.3698 54.1676 79.0722 52.982 79.0722 50.0966V43.079L77.4463 43.0803ZM75.4785 49.1191C74.2955 49.1191 73.3014 48.1262 73.3014 46.7659C73.3014 45.3902 74.2942 44.3833 75.4785 44.3833C76.6475 44.3833 77.565 45.3889 77.565 46.7659C77.5663 48.1262 76.6487 49.1191 75.4785 49.1191ZM80.2577 38.9354H81.9754V50.4208H80.2577V38.9354ZM86.6832 49.1191C85.8103 49.1191 85.1875 48.7184 84.7906 47.9361L90.0152 45.773L89.8353 45.3289C89.5111 44.4573 88.5183 42.8429 86.4905 42.8429C84.478 42.8429 82.8049 44.4267 82.8049 46.7505C82.8049 48.9392 84.4627 50.6569 86.6832 50.6569C88.4749 50.6569 89.5111 49.5632 89.9399 48.9251L88.6076 48.0382C88.1622 48.6903 87.5548 49.1204 86.6832 49.1191ZM86.5492 44.3526C87.2294 44.3526 87.8062 44.6934 87.9989 45.1809L84.5048 46.6319C84.4614 45.1222 85.675 44.3526 86.5492 44.3526Z" fill="#808285"/>
<path fill-rule="evenodd" clip-rule="evenodd" d="M97.5522 38.9354H93.4456V50.4208H95.1594V46.0704H97.5535C99.4537 46.0704 101.322 44.6947 101.322 42.5022C101.322 40.3136 99.455 38.9366 97.5561 38.9366L97.5522 38.9354ZM97.5969 44.4713H95.1594V40.5331H97.5969C98.8782 40.5331 99.6081 41.5962 99.6081 42.5022C99.6081 43.393 98.8782 44.4713 97.5969 44.4713ZM103.98 50.4208V38.9354H102.266V50.4208H103.98ZM111.679 50.4004V45.9976C111.679 43.9583 110.156 42.8213 108.189 42.8213C106.95 42.8213 105.665 43.3687 105.133 44.5798L106.654 45.2141C106.979 44.5798 107.584 44.3718 108.221 44.3718C109.107 44.3718 110.008 44.904 110.022 45.8509V45.9696C109.711 45.7922 109.048 45.5254 108.234 45.5254C106.594 45.5254 104.925 46.4264 104.925 48.1109C104.925 49.6487 106.27 50.6377 107.777 50.6377C108.93 50.6377 109.565 50.1209 109.963 49.516H110.022V50.4029H111.678L111.679 50.4004ZM107.985 49.1166C107.423 49.1166 106.64 48.8358 106.64 48.1429C106.64 47.2559 107.616 46.9139 108.458 46.9139C109.212 46.9139 109.566 47.076 110.025 47.298C109.894 48.3292 109.022 49.1038 107.985 49.1166ZM117.707 43.0727L115.741 48.051H115.683L113.643 43.0727H111.797L114.854 50.0328L113.11 53.9034H114.898L119.611 43.0727H117.707Z" fill="#808285"/>
<defs>
<linearGradient id="paint0_linear_23_45" x1="26.9279" y1="34.5864" x2="8.18683" y2="39.5799" gradientUnits="userSpaceOnUse">
<stop stop-color="#00A0FF"/>
<stop offset="0.007" stop-color="#00A1FF"/>
<stop offset="0.26" stop-color="#00BEFF"/>
<stop offset="0.512" stop-color="#00D2FF"/>
<stop offset="0.76" stop-color="#00DFFF"/>
<stop offset="1" stop-color="#00E3FF"/>
</linearGradient>
<linearGradient id="paint1_linear_23_45" x1="38.2938" y1="45.2516" x2="15.443" y2="45.2516" gradientUnits="userSpaceOnUse">
<stop stop-color="#FFE000"/>
<stop offset="0.409" stop-color="#FFBD00"/>
<stop offset="0.775" stop-color="#FFA500"/>
<stop offset="1" stop-color="#FF9C00"/>
</linearGradient>
<linearGradient id="paint2_linear_23_45" x1="29.7872" y1="47.4206" x2="14.7417" y2="72.743" gradientUnits="userSpaceOnUse">
<stop stop-color="#FF3A44"/>
<stop offset="1" stop-color="#C31162"/>
</linearGradient>
<linearGradient id="paint3_linear_23_45" x1="13.2307" y1="26.5326" x2="19.9429" y2="37.842" gradientUnits="userSpaceOnUse">
<stop stop-color="#32A071"/>
<stop offset="0.069" stop-color="#2DA771"/>
<stop offset="0.476" stop-color="#15CF74"/>
<stop offset="0.801" stop-color="#06E775"/>
<stop offset="1" stop-color="#00F076"/>
</linearGradient>
</defs>
</svg>
