<svg width="70" height="17" viewBox="0 0 70 17" fill="none" xmlns="http://www.w3.org/2000/svg">
<path d="M10.6144 9.65979L11.9258 10.9959C10.6722 12.4309 9.12165 13.1485 7.27423 13.1485C5.4433 13.1485 3.91753 12.5629 2.69691 11.3918C1.49278 10.2041 0.890722 8.71134 0.890722 6.9134C0.890722 5.09897 1.50928 3.59794 2.74639 2.41031C3.98351 1.20619 5.54227 0.604123 7.42268 0.604123C9.2701 0.604123 10.8289 1.29691 12.099 2.68247L10.8124 4.09278C10.2351 3.53196 9.69072 3.14433 9.17938 2.9299C8.66804 2.71546 8.06598 2.60825 7.3732 2.60825C6.13608 2.60825 5.09691 3.00412 4.25567 3.79588C3.43093 4.58763 3.01856 5.59381 3.01856 6.81443C3.01856 8.01856 3.43093 9.04124 4.25567 9.88247C5.08041 10.7237 6.06186 11.1443 7.2 11.1443C7.89278 11.1443 8.4866 11.0289 8.98144 10.7979C9.49278 10.567 10.0371 10.1876 10.6144 9.65979ZM21.6077 13H19.851V11.7629C19.0758 12.6866 18.0531 13.1485 16.783 13.1485C15.8098 13.1485 15.0098 12.8763 14.383 12.332C13.7727 11.7711 13.4675 11.0454 13.4675 10.1546C13.4675 9.26392 13.7974 8.58763 14.4572 8.12577C15.117 7.66392 16.0242 7.43299 17.1789 7.43299H19.7026V7.0866C19.7026 5.86598 19.018 5.25567 17.649 5.25567C16.7912 5.25567 15.9005 5.56907 14.9768 6.19588L14.1108 4.9835C15.249 4.09278 16.5191 3.64742 17.9211 3.64742C19.0593 3.64742 19.9582 3.93608 20.618 4.5134C21.2778 5.07423 21.6077 5.92371 21.6077 7.06186V13ZM19.6778 8.79381H17.5005C16.0985 8.79381 15.3974 9.23093 15.3974 10.1052C15.3974 10.5505 15.5706 10.8969 15.917 11.1443C16.2634 11.3753 16.75 11.4907 17.3768 11.4907C18.0201 11.4907 18.5644 11.3175 19.0098 10.9711C19.4552 10.6082 19.6778 10.1381 19.6778 9.56082V8.79381ZM33.759 8.34845C33.759 9.73402 33.3301 10.8804 32.4724 11.7876C31.6147 12.6948 30.592 13.1485 29.4043 13.1485C28.2332 13.1485 27.1858 12.6371 26.2621 11.6144V16.3649H24.3322V3.79588H26.2621V5.40412C27.0373 4.23299 28.0353 3.64742 29.2559 3.64742C30.526 3.64742 31.5899 4.08454 32.4476 4.95876C33.3219 5.83299 33.759 6.96289 33.759 8.34845ZM28.959 11.4165C29.7507 11.4165 30.4188 11.1361 30.9631 10.5753C31.5239 9.99794 31.8043 9.27216 31.8043 8.39794C31.8043 7.52371 31.5239 6.79794 30.9631 6.22062C30.4188 5.6433 29.759 5.35464 28.9837 5.35464C28.2085 5.35464 27.5569 5.65155 27.0291 6.24536C26.5013 6.82268 26.2373 7.54021 26.2373 8.39794C26.2373 9.27216 26.5013 9.99794 27.0291 10.5753C27.5569 11.1361 28.2002 11.4165 28.959 11.4165ZM38.3324 5.35464V10.0309C38.3324 10.4763 38.4479 10.8309 38.6788 11.0948C38.9263 11.3423 39.2562 11.466 39.6685 11.466C40.0479 11.466 40.4438 11.2598 40.8562 10.8474L41.6479 12.233C40.9551 12.8433 40.2046 13.1485 39.3964 13.1485C38.5551 13.1485 37.8458 12.8598 37.2685 12.2825C36.6912 11.6887 36.4025 10.9216 36.4025 9.98144V5.35464H35.2397V3.79588H36.4025V0.90103H38.3324V3.79588H40.7572V5.35464H38.3324ZM49.6324 3.79588H51.587V13H49.6324V11.3175C49.319 11.8784 48.8818 12.3237 48.321 12.6536C47.7767 12.9835 47.1911 13.1485 46.5643 13.1485C45.5087 13.1485 44.6674 12.8268 44.0406 12.1835C43.4138 11.5402 43.1004 10.6247 43.1004 9.43711V3.79588H45.0303V8.8433C45.0303 10.5423 45.7313 11.3918 47.1334 11.3918C47.8427 11.3918 48.4365 11.1608 48.9148 10.699C49.3932 10.2371 49.6324 9.59381 49.6324 8.76907V3.79588ZM56.309 9.04124V13H54.3791V3.79588H56.309V5.6268C56.6224 5.04948 57.043 4.57938 57.5708 4.21649C58.1151 3.85361 58.6842 3.66392 59.278 3.64742L59.3028 5.60206H59.2038C58.2636 5.60206 57.5461 5.90722 57.0512 6.51753C56.5564 7.12783 56.309 7.96907 56.309 9.04124ZM69.8071 9.23917H62.5823C62.6318 9.89897 62.937 10.4351 63.4978 10.8474C64.0586 11.2598 64.7102 11.466 65.4524 11.466C66.6236 11.466 67.4978 11.1031 68.0751 10.3773L69.1885 11.5897C68.1988 12.6289 66.904 13.1485 65.304 13.1485C63.9844 13.1485 62.8792 12.7113 61.9885 11.8371C61.0978 10.9629 60.6524 9.80825 60.6524 8.3732C60.6524 6.97113 61.106 5.83299 62.0133 4.95876C62.9205 4.08454 64.0174 3.64742 65.304 3.64742C66.5906 3.64742 67.6627 4.03505 68.5205 4.81031C69.3782 5.58557 69.8071 6.61649 69.8071 7.90309V9.23917ZM67.8772 7.70515C67.8772 6.96289 67.638 6.37732 67.1596 5.94845C66.6978 5.51959 66.0957 5.30515 65.3535 5.30515C64.6112 5.30515 63.9596 5.52783 63.3988 5.9732C62.8545 6.41856 62.5823 6.99588 62.5823 7.70515H67.8772Z" fill="#2438A1"/>
</svg>
